<svg height='auto' width='100%'  fill="#FFFFFF" xmlns="http://www.w3.org/2000/svg" data-name="Layer 1" viewBox="0 0 64 64" x="0px" y="0px"><title>candidate-election-woman-party-democrecy-volunteer-vote-president-nominee</title><path d="M6,46H58a1,1,0,0,0,.83-.45,1,1,0,0,0,.09-.93l-5-12a1,1,0,0,0-.68-.59l-7.55-1.89A8.58,8.58,0,0,0,49,23c0-3.79-2.9-8.93-6-9.85C42.57,6.93,37.8,2,32,2S21.43,6.93,21,13.15c-3.13.92-6,6.06-6,9.85a8.58,8.58,0,0,0,3.31,7.14L10.76,32a1,1,0,0,0-.68.59l-5,12a1,1,0,0,0,.09.93A1,1,0,0,0,6,46ZM36,28.9l-4,9.5-4-9.5.69-3.44a10.17,10.17,0,0,0,6.54,0ZM37,22.27a9.52,9.52,0,0,1-1.45.91,8.3,8.3,0,0,1-7.17,0A9.15,9.15,0,0,1,27,22.27a8,8,0,0,0-1.8-4.44l2.13-5a10.3,10.3,0,0,0,9.42,0l2.13,5A8,8,0,0,0,37,22.27ZM30,38.76l-7.33-4,4-4Zm7.37-8,4,4-7.33,4Zm.51-2.58-.5-2.47a8.91,8.91,0,0,0,1.2,2.65ZM17,23c0-3.63,3.07-8,5-8a1,1,0,0,0,1-1c0-5.51,4-10,9-10s9,4.49,9,10a1,1,0,0,0,1,1c1.93,0,5,4.37,5,8,0,3.25-1.83,6-4,6s-4-2.75-4-6.06a.53.53,0,0,0,0-.13,6.2,6.2,0,0,1,1.74-4.15,1,1,0,0,0,.17-1.05L38.08,11a1,1,0,0,0-.67-.58,1.07,1.07,0,0,0-.25,0,1,1,0,0,0-.62.21A7.42,7.42,0,0,1,32,12a7.42,7.42,0,0,1-4.54-1.42,1,1,0,0,0-.87-.18,1,1,0,0,0-.67.58l-2.84,6.63a1,1,0,0,0,.17,1.05A6.2,6.2,0,0,1,25,22.81,1.15,1.15,0,0,0,25,23c0,3.25-1.83,6-4,6S17,26.25,17,23Zm9.64,2.71-.5,2.47-.7.18A8.91,8.91,0,0,0,26.64,25.71ZM11.73,33.85l12-3-3.45,3.44a1,1,0,0,0-.28.85,1,1,0,0,0,.51.74l11,6h0a.91.91,0,0,0,.94,0h0l11-6a1,1,0,0,0,.51-.74,1,1,0,0,0-.28-.85l-3.45-3.44,12,3L56.5,44H7.5Z"></path><path d="M2.08,57.38A1,1,0,0,0,3,58h9v3a1,1,0,0,0,1,1H51a1,1,0,0,0,1-1V58h9a1,1,0,0,0,.92-.62,1,1,0,0,0-.21-1.09L58.41,53l3.3-3.29a1,1,0,0,0,.21-1.09A1,1,0,0,0,61,48H45a1,1,0,0,0-1,1v3H20V49a1,1,0,0,0-1-1H3a1,1,0,0,0-.92.62,1,1,0,0,0,.21,1.09L5.59,53l-3.3,3.29A1,1,0,0,0,2.08,57.38ZM50,60H14V54H50ZM46,50H58.59l-2.3,2.29a1,1,0,0,0,0,1.42L58.59,56H52V53a1,1,0,0,0-1-1H46ZM7.71,53.71a1,1,0,0,0,0-1.42L5.41,50H18v2H13a1,1,0,0,0-1,1v3H5.41Z"></path></svg>